<?xml version="1.0" encoding="utf-8"?>
<svg xmlns="http://www.w3.org/2000/svg" xmlns:xlink="http://www.w3.org/1999/xlink" width="338"
	height="298">
	<path fill="currentColor"
		d="M0 0L337.562 0C338.162 0.94404 337.998 2.3128 337.999 3.39826L338.001 216.37L338.002 274.686L337.999 290.305C337.998 292.429 338.287 295.059 337.93 297.128C337.876 297.443 337.732 297.733 337.562 298L0 298L0 0Z" />
	<path fill="currentColor"
		d="M238.469 94.9707L239.108 94.8094L239.534 95.1211C239.606 95.704 239.686 96.2717 239.82 96.8438C239.967 97.4925 240.151 98.095 240.039 98.7622C239.86 98.8683 239.687 98.9831 239.475 99.0109C238.804 99.0991 238.398 99.0041 237.864 98.6273C237.587 97.6834 238.263 95.961 238.469 94.9707Z" />
	<path fill="currentColor"
		d="M138.524 99.8456C138.699 99.2449 138.804 98.9481 139.296 98.5488C140.766 100.331 141.803 102.681 142.944 104.699C142.606 105.065 142.283 105.438 141.887 105.743C140.665 103.855 139.41 101.917 138.524 99.8456Z" />
	<path fill="currentColor"
		d="M215.961 86.8253C217.1 87.9838 216.165 90.1407 217.136 91.3872C217.185 89.9719 216.976 88.6079 216.779 87.2117L217.281 87.0786C217.852 90.3849 218.061 93.8416 218.145 97.1934L218.02 97.1057C216.16 95.7912 216.837 95.1466 216.484 93.1775L216.446 92.9767C216.093 90.9989 216.1 88.8361 215.961 86.8253Z" />
	<path fill="currentColor"
		d="M231.783 91.9093C231.645 91.553 231.675 91.3833 231.759 91.0147C232.071 91.0882 232.361 91.1835 232.68 91.0967C233.56 90.8576 232.916 88.5988 233.427 87.8241C233.46 89.2613 233.434 90.7479 233.587 92.1762C233.777 93.9591 235.007 96.3874 234.309 98.0906L233.943 98.2893C233.362 98.0378 233.073 97.7154 232.846 97.1194C232.208 95.4504 232.362 93.576 231.783 91.9093Z" />
	<path fill="currentColor"
		d="M168.7 99.1799C169.962 101.348 172.323 104.82 172.183 107.41L171.739 107.657C169.585 105.839 168.483 101.848 167.108 99.373C167.747 99.4932 168.1 99.4218 168.7 99.1799Z" />
	<path fill="currentColor"
		d="M240.949 87.4685C242.263 85.7563 243.963 83.2756 246.257 82.9923C247.327 82.8601 248.533 83.0107 249.382 83.7302C249.806 84.0898 250.229 84.8091 250.263 85.3633C250.269 85.4575 250.266 85.5521 250.268 85.6464L249.933 85.8503C248.323 85.3693 245.884 84.2779 244.289 85.1571C243.06 85.8349 242.139 87.3202 241.396 88.4651C241.204 88.1587 241.086 87.8026 240.949 87.4685Z" />
	<path fill="currentColor"
		d="M155.912 99.8749C155.394 98.6613 154.567 97.4486 153.918 96.2912C153.089 94.8121 151.044 92.0813 151.496 90.4755C151.932 89.9649 152.196 89.754 152.857 89.6101L153.219 89.8729C153.299 90.3605 153.407 90.8512 153.46 91.3419C153.713 93.6681 155.983 97.4695 156.923 99.8866L155.912 99.8749Z" />
	<path fill="#5D318A"
		d="M159.403 103.53C160.257 105.666 162.979 109.26 162.846 111.313C162.493 111.785 162.525 111.762 161.944 111.858C160.2 110.986 158.516 105.53 157.714 103.653L159.403 103.53Z" />
	<path fill="#020007"
		d="M299.268 113.912C300.711 112.928 302.152 111.939 303.505 110.833C305.015 109.599 306.879 107.493 308.583 106.647C309.057 106.413 309.677 106.336 310.192 106.477C310.403 106.535 310.565 106.657 310.741 106.78L310.826 107.094C310.204 107.759 309.233 108.066 308.487 108.607C306.327 110.173 304.325 111.997 302.089 113.451C301.654 113.734 301.239 113.911 300.727 114.013C299.991 114.189 299.942 114.234 299.268 113.912Z" />
	<path fill="#2B1455"
		d="M230.65 92.4883C231.948 88.911 231.085 84.7591 232.509 81.2901C232.839 81.3103 232.949 81.2339 233.184 81.4984C234.083 82.5099 233.491 86.4934 233.427 87.8241C232.916 88.5988 233.56 90.8576 232.68 91.0967C232.361 91.1835 232.071 91.0882 231.759 91.0147C231.675 91.3833 231.645 91.553 231.783 91.9093L231.207 93.4534L230.65 92.4883Z" />
	<path fill="#5D318A"
		d="M201.077 85.6698C201.428 88.3754 201.623 91.13 202.049 93.8195C202.275 95.2438 202.787 96.638 202.891 98.0789C202.949 98.8845 202.869 99.5331 202.607 100.297L202.224 100.696C201.663 100.541 201.633 100.5 201.331 100C200.631 98.8435 200.142 90.0201 200.222 88.1542L200.746 87.8779C201.242 87.2059 201.108 86.4642 201.077 85.6698Z" />
	<path fill="#2B1455"
		d="M238.469 94.9707C238.595 93.0107 239.511 83.2731 240.287 82.104C240.935 82.0467 241.252 81.9391 241.851 82.2649C242.065 83.4944 240.658 85.4499 240.919 87.2796C240.928 87.3428 240.939 87.4055 240.949 87.4685C241.086 87.8026 241.204 88.1587 241.396 88.4651C240.494 91.2212 240.06 93.9598 239.82 96.8438C239.686 96.2717 239.606 95.704 239.534 95.1211L239.108 94.8094L238.469 94.9707Z" />
	<path fill="#5D318A"
		d="M207.198 88.4729C209.497 91.3287 212.536 94.8196 216.086 96.0813C216.482 95.3662 216.393 93.823 216.446 92.9767L216.484 93.1775C216.837 95.1466 216.16 95.7912 218.02 97.1057L218.145 97.1934C217.597 97.7865 217.128 98.2806 216.255 98.2746C215.379 98.2686 214.438 97.7021 213.758 97.1836C210.752 95.5869 207.743 91.6334 205.817 88.8905L206.495 89.0772L207.198 88.4729Z" />
	<path fill="#FAF5FC"
		d="M173.083 260.443C173.426 258.871 173.863 258.292 175.213 257.442C176.147 256.854 177.273 256.435 178.384 256.737C179.241 256.97 180.056 257.82 180.431 258.611C180.774 259.333 180.679 259.836 180.383 260.544C180.216 260.947 180.03 261.34 179.847 261.735C179.554 262.366 179.603 262.804 179.685 263.477L179.303 262.673C176.692 262.054 176.85 260.142 173.083 260.443Z" />
	<path fill="#2B1455"
		d="M142.944 104.699C144.751 107.007 146.109 109.747 147.984 111.968C149.212 113.421 152.369 115.054 152.481 117.007L152.22 117.606C151.788 117.775 151.675 117.849 151.233 117.678C148.285 116.536 143.515 108.463 141.887 105.743C142.283 105.438 142.606 105.065 142.944 104.699Z" />
	<path fill="#5D318A"
		d="M215.961 86.8253C215.747 86.2932 213.569 75.5871 213.598 74.9733C213.626 74.3805 214.077 73.7085 214.546 73.359C215.021 73.0055 215.544 72.9324 216.114 72.9712C216.657 73.7581 216.417 76.08 216.451 77.1029C216.561 80.4513 217.017 83.7443 217.281 87.0786L216.779 87.2117C216.976 88.6079 217.185 89.9719 217.136 91.3872C216.165 90.1407 217.1 87.9838 215.961 86.8253Z" />
	<path fill="#0F042B"
		d="M156.923 99.8866C157.035 100.136 157.153 100.21 157.359 100.381C157.935 99.7213 157.791 98.0899 158.029 97.2091C158.418 95.7619 159.631 93.8463 161.011 93.1475C161.833 92.7315 162.724 92.7045 163.587 93.0105C166.153 93.92 167.578 96.9021 168.7 99.1799C168.1 99.4218 167.747 99.4932 167.108 99.373C166.175 97.6556 165.223 95.4509 163.186 94.8348C162.405 94.5988 161.627 94.7112 160.935 95.1389C159.808 95.8349 159.176 97.2092 158.937 98.4682C158.602 100.226 158.812 101.864 159.403 103.53L157.714 103.653C157.349 102.296 156.595 101.093 155.912 99.8749L156.923 99.8866Z" />
	<path fill="#0F042B"
		d="M175.08 97.3101C175.25 99.2282 175.628 101.115 177.211 102.398C178.207 103.206 179.475 103.443 180.724 103.277C182.825 102.996 185.066 101.567 186.35 99.8996C187.374 98.568 187.326 95.92 188.668 95.1678L189.21 95.186C189.61 96.1821 189.124 97.1499 188.72 98.0947C187.577 100.766 185.219 103.308 182.493 104.407C180.854 105.067 178.926 105.257 177.276 104.528C175.868 103.906 174.951 102.716 174.43 101.291C174.226 100.732 174.011 100.11 173.964 99.5141L174.541 99.4707C175.241 98.8426 174.633 98.2876 174.977 97.5172C175.008 97.4468 175.045 97.3791 175.08 97.3101Z" />
	<path fill="#2B1455"
		d="M200.222 88.1542C199.839 85.781 198.207 79.8143 199.655 77.8787C199.94 77.4971 200.286 77.2374 200.694 76.9957L201.188 77.092C203.277 80.9062 204.711 84.8468 207.198 88.4729L206.495 89.0772L205.817 88.8905C203.63 85.8158 201.817 82.7171 200.128 79.3421C200.481 81.4481 200.802 83.5522 201.077 85.6698C201.108 86.4642 201.242 87.2059 200.746 87.8779L200.222 88.1542Z" />
	<path fill="#F3EAF9"
		d="M179.685 263.477C179.218 264.07 178.519 264.718 177.815 265.001C174.572 266.308 172.332 262.886 169.723 261.694C168.694 261.224 167.34 261.338 166.383 260.825C165.225 260.203 163.65 260.837 162.629 260.104L162.714 259.736C162.887 259.674 162.98 259.631 163.153 259.6C163.552 259.53 169.062 260.352 169.452 260.496C170.285 260.802 171.121 261.413 171.871 261.89C172.369 261.547 172.723 260.93 173.083 260.443C176.85 260.142 176.692 262.054 179.303 262.673L179.685 263.477Z" />
	<path fill="#0F042B"
		d="M231.207 93.4534C230.868 94.2528 230.521 95.0539 230.042 95.7811C229.186 97.0806 227.859 98.4042 226.258 98.67C225.449 98.8042 224.688 98.6075 224.048 98.0906C222.943 97.1981 222.256 95.5686 222.056 94.1945C221.661 91.4839 221.729 83.2923 223.346 81.2801C223.587 80.9813 223.734 81.0309 224.108 80.9789C224.23 81.1057 224.39 81.2048 224.474 81.3591C224.503 81.4112 222.729 91.4091 223.588 94.4103C223.868 95.3865 224.469 96.5632 225.425 97.0238C225.973 97.2878 226.484 97.3252 227.054 97.0712C228.9 96.2476 229.892 94.2335 230.65 92.4883L231.207 93.4534Z" />
	<path fill="#5D318A"
		d="M130.309 101.984C135.639 100.746 138.601 96.0261 143.285 93.6481C144.305 93.1305 146.062 92.3828 147.187 92.7624C146.776 94.1595 140.822 97.3861 139.296 98.5488C138.804 98.9481 138.699 99.2449 138.524 99.8456L138.285 99.6226C137.598 99.8009 133.335 104.276 132.034 105.218C131.35 104.206 130.845 103.079 130.309 101.984Z" />
	<path fill="#F3EAF9"
		d="M185.679 259.789C185.991 259.701 186.344 259.662 186.666 259.624C187.482 259.526 188.02 259.632 188.668 260.144C188.693 261.477 187.553 262.576 187.225 263.819C186.945 264.879 186.971 266.171 186.905 267.267L186.638 267.394L186.261 267.218C186.202 266.647 186.188 266.128 185.887 265.626L185.384 265.775C184.778 266.268 183.963 266.946 183.181 267.114C182.631 267.233 182.102 267.168 181.654 266.806C181.194 266.433 180.991 265.804 180.909 265.242C180.712 263.884 181.257 262.407 182.088 261.351C183.052 260.124 184.214 259.957 185.679 259.789Z" />
	<path fill="#2B1455"
		d="M287.348 94.2578C287.969 94.3391 288.565 94.4685 289.173 94.6169C289.576 95.7514 286.686 97.8487 286.791 99.3575C287.785 99.0707 288.621 98.3506 289.576 97.9396C291.073 97.2958 293.138 96.7673 294.706 97.4827C295.25 97.7307 295.646 98.1305 295.85 98.6952C296.111 99.4135 296.069 100.361 295.737 101.041C294.439 100.751 293.672 98.5814 292.383 98.4785C290.589 98.3352 287.674 99.4794 286.385 100.695C286.339 100.738 286.296 100.783 286.252 100.827C284.863 102.654 283.494 104.775 282.583 106.885C282.179 107.822 281.99 108.838 281.488 109.729C281.372 109.933 281.087 110.036 280.884 110.153C280.199 109.964 280.13 109.867 279.656 109.325C279.635 109.19 279.519 108.763 279.551 108.655C280.024 107.016 282.538 103.831 283.474 102.128C284.882 99.5629 286.053 96.8804 287.348 94.2578Z" />
	<path fill="#0F042B"
		d="M294.214 117.106C295.133 113.649 296.611 110.283 297.744 106.882C298.285 105.257 298.519 103.499 299.106 101.91C299.316 101.339 299.526 100.975 300.022 100.613C300.599 100.658 300.597 100.661 301.018 101.06C300.9 103.773 296.95 113.042 295.678 116.093C296.883 115.372 298.039 114.597 299.268 113.912C299.942 114.234 299.991 114.189 300.727 114.013C300.666 114.29 300.726 114.215 300.592 114.365C298.256 116.98 290.012 121.335 286.415 121.478C285.46 121.516 284.801 121.364 284.1 120.71C284.359 119.884 285.364 120.048 286.096 120.037C289.335 119.987 291.669 119.055 294.214 117.106Z" />
	<path fill="#FAF5FC"
		d="M305.558 228.365C306.848 228.048 307.82 228.003 308.998 228.691C310.318 229.462 311.412 230.714 311.762 232.227C311.967 233.115 311.862 234.051 311.347 234.819C310.69 235.8 309.58 236.171 308.481 236.375C308.438 236.376 308.395 236.38 308.352 236.379C308.28 236.379 308.209 236.375 308.138 236.374C307.902 236.369 307.671 236.365 307.439 236.32C306.219 236.087 304.616 234.673 303.927 233.682C303.372 232.884 302.936 231.799 303.153 230.82C303.42 229.618 304.601 228.968 305.558 228.365Z" />
	<path fill="#FAF5FC"
		d="M227.997 261.877C228.942 261.845 230.068 261.821 230.974 262.119C231.894 262.42 232.706 263.22 233.104 264.096C233.711 265.429 233.716 266.765 233.194 268.124C232.707 269.392 232.077 270.011 230.846 270.56C230.365 270.626 229.897 270.66 229.413 270.609C228.334 270.496 227.48 270.062 226.817 269.192C225.902 267.991 225.692 266.334 225.932 264.878C226.183 263.356 226.791 262.751 227.997 261.877Z" />
	<path fill="#FAF5FC"
		d="M299.102 233.825C300.4 233.602 301.243 233.471 302.443 234.167C303.811 234.96 304.948 236.19 305.342 237.751C305.556 238.596 305.458 239.524 304.97 240.261C304.29 241.287 303.177 241.652 302.039 241.894C301.868 242.03 301.606 242.058 301.396 242.113C300.337 241.88 299.555 241.514 298.724 240.806C297.807 240.023 296.382 238.433 296.375 237.153C296.366 235.787 298.146 234.766 299.015 233.912L299.102 233.825Z" />
	<path fill="#0F042B"
		d="M256.483 84.2639C258.511 84.1147 260.029 84.1243 261.718 85.3749C262.978 86.3069 264.194 87.9986 264.324 89.6045C264.378 90.2606 264.224 90.4672 263.833 90.9327C263.259 91.0025 263.22 91.0742 262.728 90.7248C262.59 89.4796 262.319 88.2475 261.573 87.2169C260.798 86.147 259.57 85.3188 258.239 85.1691C257.297 85.0632 256.413 85.3535 255.695 85.9707C254.642 86.8754 253.708 88.6069 253.652 90.0078C253.51 93.5155 258.062 95.5728 260.082 97.8812C260.902 98.8173 261.036 99.4213 260.966 100.626C260.707 100.888 260.404 101.211 260.061 101.357C259.196 101.724 251.278 100.313 250.069 99.9109C249.717 99.3812 249.715 99.3691 249.79 98.7377C249.929 98.6542 250.05 98.5306 250.205 98.4873C250.784 98.3262 254.779 99.2955 255.649 99.4067C257.111 99.5933 258.604 99.6546 260.076 99.7363C257.703 97.6052 254.537 95.3171 252.971 92.5208C252.241 91.2189 251.875 89.7389 252.33 88.2791C252.95 86.2951 254.747 85.1707 256.483 84.2639Z" />
	<path fill="#0F042B"
		d="M173.964 99.5141C173.65 97.433 174.149 95.6685 174.216 93.6173C174.233 93.0775 174.087 92.5645 174.107 92.0163L174.679 92.3525C176.382 91.3772 176.894 88.8773 178.759 87.7472C179.762 87.1396 181.002 86.7917 182.16 87.1306C182.817 87.3227 183.374 87.7512 183.696 88.3587C184.157 89.2309 184.028 90.3302 183.751 91.2413C182.436 95.5748 177.752 93.739 175.349 95.048L175.08 97.3101C175.045 97.3791 175.008 97.4468 174.977 97.5172C174.633 98.2876 175.241 98.8426 174.541 99.4707L173.964 99.5141Z" />
	<path fill="#F3EAF9"
		d="M180.838 88.2268C181.163 88.3034 181.528 88.3808 181.824 88.5399C182.237 88.7616 182.636 89.2635 182.724 89.728C182.834 90.3099 182.602 90.8917 182.259 91.3524C181.211 92.7592 180.124 93.0298 178.461 93.2763C177.755 93.261 177.334 93.3247 176.701 92.9539C176.652 92.6873 176.539 92.3919 176.631 92.1345C177.257 90.3958 179.234 88.9861 180.838 88.2268Z" />
	<path fill="#787885"
		d="M241.162 261.53C240.095 261.807 237.9 262.657 236.941 262.179C236.945 261.558 236.997 261.589 237.404 261.164C240.141 260.401 243.159 260.281 245.965 259.773C247.293 259.533 248.574 258.965 249.888 258.769C250.601 258.662 251.388 258.72 252.102 258.78C252.659 259.233 253.356 259.704 253.841 260.225C254.177 260.659 254.529 261.133 254.718 261.654C255.113 262.745 255.276 263.986 254.704 265.045C253.845 266.636 252.357 266.953 250.733 267.381C250.695 267.368 250.657 267.356 250.619 267.343C245.575 265.615 247.872 264.378 246.159 260.953C245.106 260.816 243.437 260.821 242.521 261.371C242.682 263.793 243.774 267.042 243.209 269.389L242.936 269.335C241.619 266.914 241.424 264.228 241.162 261.53Z" />
	<path fill="#FAF5FC"
		d="M248.747 259.818C249.439 259.822 250.143 259.845 250.83 259.924C251.862 260.043 253.035 260.842 253.652 261.675C254.022 262.175 254.209 262.846 254.109 263.464C253.947 264.469 253.384 265.212 252.57 265.778C252.155 265.928 251.739 266.054 251.305 266.139C250.567 266.283 250.06 266.195 249.451 265.739C248.735 265.204 248.223 264.365 248.081 263.482C247.882 262.251 247.995 260.834 248.747 259.818Z" />
	<path fill="#787885"
		d="M212.224 258.951C212.942 258.934 213.72 258.907 214.4 259.173C215.025 259.417 215.287 260.185 215.543 260.754L215.25 261.384C214.687 260.83 214.139 260.274 213.494 259.813C212.907 259.789 212.604 259.781 212.142 260.226C211.638 260.711 211.533 261.341 211.507 262.005C211.988 262.584 213.029 262.514 213.786 262.676L214.037 263.12C213.587 263.576 213.22 263.458 212.626 263.539C212.25 263.591 211.833 263.566 211.604 263.886C210.826 264.969 211.115 269.227 211.308 270.588C211.347 270.866 211.287 270.909 211.177 271.157C210.572 271.249 210.267 271.155 209.727 270.879C208.219 268.874 210.443 266.008 209.842 263.885C209.186 263.397 208.356 263.534 207.572 263.548C207.863 264.431 208.072 265.227 208.047 266.165C208.012 267.488 207.762 268.846 206.716 269.766C205.89 270.491 204.725 270.819 203.64 270.685C202.516 270.546 201.501 269.922 200.832 269.014C200.208 268.167 199.962 267.05 200.118 266.015C200.329 264.622 201.402 262.509 202.607 261.726C204.174 260.706 205.947 262.678 207.456 262.896C209.442 263.183 210.779 260.059 212.224 258.951Z" />
	<path fill="#FAF5FC"
		d="M203.433 262.359C204.326 262.777 205.941 263.964 206.469 264.788C206.915 265.483 207.128 266.331 206.922 267.143C206.572 268.525 205.79 269.058 204.646 269.759C203.711 269.893 203.311 269.604 202.554 269.081C201.855 268.599 201.301 267.983 201.192 267.102C200.97 265.293 202.408 263.685 203.433 262.359Z" />
	<path fill="#5D318A"
		d="M276.169 90.3114C276.241 90.2994 276.314 90.2852 276.387 90.2755C277.295 90.1542 278.53 90.4175 279.224 91.0145C279.748 91.4648 280.024 92.0805 280.043 92.7674C280.069 93.6957 279.665 94.5513 279.036 95.2147C278.103 96.1979 276.773 96.6259 275.444 96.6558C272.78 96.7156 271.731 95.4006 269.946 93.7005C269.753 93.7228 269.595 93.735 269.425 93.8387C267.878 94.7802 266.47 97.227 266.143 98.9671C265.921 100.141 266.117 101.315 266.797 102.306C267.646 103.542 269.045 104.184 270.479 104.458C272.757 104.895 275.262 104.443 277.192 103.165C277.714 102.511 278.166 101.939 278.869 101.468C279.475 101.475 279.596 101.435 280.111 101.792C280.068 102.004 280.031 102.204 279.93 102.398C279.21 103.772 276.479 105.085 274.999 105.427C272.488 106.007 268.844 106.248 266.57 104.784C265.365 104.009 264.426 102.77 264.147 101.353C263.768 99.4368 264.569 97.5665 265.636 96.0114C268.461 91.8962 271.537 91.141 276.169 90.3114Z" />
	<path fill="#F3EAF9"
		d="M276.546 91.5932C276.663 91.615 276.779 91.6374 276.894 91.6639C277.754 91.8618 278.21 92.1582 278.668 92.8747C278.571 93.6322 278.432 93.9459 277.799 94.45C276.679 95.3417 275.634 95.2791 274.295 95.1086C273.688 94.819 273.046 94.5392 272.473 94.1868C271.934 93.8553 271.721 93.6094 271.58 93.0062C272.602 91.8502 275.067 91.8102 276.546 91.5932Z" />
	<path fill="#5D318A"
		d="M274.799 112.471L274.967 112.502C275.615 113.05 273.953 119.291 274.627 121.482C275.659 124.84 280.265 125.241 282.035 128.332C282.868 129.787 283.009 131.644 283.129 133.298C283.243 134.872 282.944 151.908 282.712 152.656C282.327 153.894 280.868 154.668 279.795 155.223C275.465 157.464 272.333 146.756 269.148 145.685L268.786 145.988C267.371 153.955 272.091 160.123 274.115 167.43C276.841 177.272 273.661 183.823 268.911 192.24C269.897 202.359 270.887 212.596 272.308 222.664C274.897 220.977 277.454 219.259 279.672 217.09C282.383 214.441 284.694 211.382 287.795 209.15C290.061 207.519 292.438 206.555 295.265 207.042C297.381 207.407 299.287 208.634 300.517 210.39C301.623 211.967 302.071 213.904 301.708 215.8C300.612 221.532 290.994 229.94 286.277 233.126C278.084 238.66 268.527 243.12 258.974 245.748C255.511 246.7 251.907 247.316 248.383 248.01C229.663 251.698 211.33 251.757 192.589 248.162C188.548 247.387 184.452 246.685 180.486 245.584C176.739 244.544 173.144 243.074 169.557 241.588C156.98 236.376 146.459 229.43 138.705 217.994C138.508 217.573 138.316 217.145 138.196 216.695C137.669 214.717 137.899 212.632 138.932 210.854C139.99 209.033 141.747 207.636 143.8 207.117C151.234 205.236 157.049 214.628 161.918 218.735C165.216 221.516 168.95 223.763 172.656 225.951C173.786 217.412 175.014 208.72 175.594 200.13C175.945 194.926 175.96 189.682 175.962 184.467C175.963 182.665 176.404 179.305 175.456 177.798C174.637 177.543 173.792 177.886 173.038 178.22C165.585 181.526 165.485 193.96 155.885 197.065C150.322 198.864 144.019 195.807 139.177 193.27C140.226 193.239 141.333 193.246 142.346 192.943C149.648 190.754 153.275 176.462 156.493 170.361C158.488 166.579 161.421 162.82 165.68 161.556C171.615 159.793 177.595 163.055 182.677 165.77L182.643 148.782C182.641 145.387 182.401 141.799 182.894 138.441C183.094 137.081 183.403 135.784 184.349 134.742C185.601 133.362 187.347 132.869 189.16 132.794C191.072 132.715 192.918 132.969 194.361 134.323C195.406 135.304 196.014 136.638 196.322 138.02C196.876 140.51 196.636 143.391 196.628 145.939C196.615 150.436 196.5 154.951 196.701 159.444L221.236 159.45C226.06 159.45 230.991 159.661 235.796 159.227C237.916 156.243 238.527 152.53 239.367 149.04C241.1 141.835 243.586 133.698 249.014 128.345C254.015 123.413 261.382 121.931 268.162 122.015C269.18 118.081 271.342 114.665 274.799 112.471Z" />
	<path fill="#FEFEFE"
		d="M206.072 196.061C218.767 195.085 232.288 202.204 244.708 196.677C246.649 200.78 248.228 205.078 249.91 209.295L258.028 229.7C252.458 232.078 246.625 233.032 240.693 233.989C229.027 235.963 217.426 236.505 205.659 235.071C199.903 234.369 194.184 233.233 188.429 232.454C188.836 231.299 189.214 230.134 189.642 228.987C191.673 223.545 193.962 218.183 196.111 212.786C197.715 208.757 199.748 202.008 202.178 198.687C203.125 197.392 204.658 196.708 206.072 196.061Z" />
</svg>