<svg
  xmlns="http://www.w3.org/2000/svg"
  width="338"
  height="98"
  viewBox="130 90 180 180"
>
  <path
    fill="currentColor"
    d="M274.799 112.471L274.967 112.502C275.615 113.05 273.953 119.291 274.627 121.482C275.659 124.84 280.265 125.241 282.035 128.332C282.868 129.787 283.009 131.644 283.129 133.298C283.243 134.872 282.944 151.908 282.712 152.656C282.327 153.894 280.868 154.668 279.795 155.223C275.465 157.464 272.333 146.756 269.148 145.685L268.786 145.988C267.371 153.955 272.091 160.123 274.115 167.43C276.841 177.272 273.661 183.823 268.911 192.24C269.897 202.359 270.887 212.596 272.308 222.664C274.897 220.977 277.454 219.259 279.672 217.09C282.383 214.441 284.694 211.382 287.795 209.15C290.061 207.519 292.438 206.555 295.265 207.042C297.381 207.407 299.287 208.634 300.517 210.39C301.623 211.967 302.071 213.904 301.708 215.8C300.612 221.532 290.994 229.94 286.277 233.126C278.084 238.66 268.527 243.12 258.974 245.748C255.511 246.7 251.907 247.316 248.383 248.01C229.663 251.698 211.33 251.757 192.589 248.162C188.548 247.387 184.452 246.685 180.486 245.584C176.739 244.544 173.144 243.074 169.557 241.588C156.98 236.376 146.459 229.43 138.705 217.994C138.508 217.573 138.316 217.145 138.196 216.695C137.669 214.717 137.899 212.632 138.932 210.854C139.99 209.033 141.747 207.636 143.8 207.117C151.234 205.236 157.049 214.628 161.918 218.735C165.216 221.516 168.95 223.763 172.656 225.951C173.786 217.412 175.014 208.72 175.594 200.13C175.945 194.926 175.96 189.682 175.962 184.467C175.963 182.665 176.404 179.305 175.456 177.798C174.637 177.543 173.792 177.886 173.038 178.22C165.585 181.526 165.485 193.96 155.885 197.065C150.322 198.864 144.019 195.807 139.177 193.27C140.226 193.239 141.333 193.246 142.346 192.943C149.648 190.754 153.275 176.462 156.493 170.361C158.488 166.579 161.421 162.82 165.68 161.556C171.615 159.793 177.595 163.055 182.677 165.77L182.643 148.782C182.641 145.387 182.401 141.799 182.894 138.441C183.094 137.081 183.403 135.784 184.349 134.742C185.601 133.362 187.347 132.869 189.16 132.794C191.072 132.715 192.918 132.969 194.361 134.323C195.406 135.304 196.014 136.638 196.322 138.02C196.876 140.51 196.636 143.391 196.628 145.939C196.615 150.436 196.5 154.951 196.701 159.444L221.236 159.45C226.06 159.45 230.991 159.661 235.796 159.227C237.916 156.243 238.527 152.53 239.367 149.04C241.1 141.835 243.586 133.698 249.014 128.345C254.015 123.413 261.382 121.931 268.162 122.015C269.18 118.081 271.342 114.665 274.799 112.471Z"
  />
  <path
    fill="#ececec"
    d="M206.072 196.061C218.767 195.085 232.288 202.204 244.708 196.677C246.649 200.78 248.228 205.078 249.91 209.295L258.028 229.7C252.458 232.078 246.625 233.032 240.693 233.989C229.027 235.963 217.426 236.505 205.659 235.071C199.903 234.369 194.184 233.233 188.429 232.454C188.836 231.299 189.214 230.134 189.642 228.987C191.673 223.545 193.962 218.183 196.111 212.786C197.715 208.757 199.748 202.008 202.178 198.687C203.125 197.392 204.658 196.708 206.072 196.061Z"
  />
</svg>